<svg width="141" height="48" viewBox="0 0 141 48" fill="none" xmlns="http://www.w3.org/2000/svg">
<rect width="141" height="48" rx="4" fill="#0051A8"/>
<path fill-rule="evenodd" clip-rule="evenodd" d="M25.6472 26.217C25.4774 26.0588 25.389 25.8318 25.4073 25.6005C25.4256 25.3691 25.5486 25.1588 25.7412 25.0294C25.903 24.8772 26.1216 24.8006 26.343 24.8185C26.5644 24.8364 26.7679 24.9472 26.9032 25.1233C27.1985 25.4794 27.1568 26.0058 26.8092 26.311C26.6474 26.4631 26.4287 26.5397 26.2073 26.5218C25.9859 26.5039 25.7825 26.3932 25.6472 26.217ZM30.3726 16.4186C33.9406 18.0471 36.4438 21.5785 36.5065 25.747C36.5065 31.4095 31.9162 35.9998 26.2537 35.9998C20.5913 35.9998 16.001 31.4095 16.001 25.747C15.9434 21.6355 18.4074 17.9074 22.2125 16.3487C22.6311 16.2461 22.9387 16.2461 23.1437 16.7673C23.3385 17.1922 23.1558 17.6946 22.7336 17.8951C18.8435 19.6234 16.819 23.9516 17.9858 28.0453C19.1527 32.139 23.155 34.7493 27.3717 34.1668C31.5884 33.5843 34.7331 29.9867 34.7464 25.7299C34.7607 22.2273 32.8383 19.2308 29.7027 17.8951C29.4981 17.8314 29.3327 17.6796 29.2517 17.4812C29.1707 17.2828 29.1826 17.0586 29.2841 16.8699C29.3499 16.6647 29.5034 16.4994 29.703 16.4186C29.9027 16.3377 30.1827 16.317 30.3726 16.4186ZM21.1273 25.4738C21.1094 22.9324 22.9045 20.7387 25.3993 20.2535V12.9484C25.4317 12.4732 25.7845 12.0816 26.2537 12H30.0216C30.4733 12.0272 30.8256 12.4018 30.8247 12.8544C30.806 13.299 30.4642 13.6626 30.0216 13.7088H27.1081V20.2706C29.6377 20.6968 31.4628 22.9271 31.3801 25.4909C31.409 28.3635 29.1256 30.7268 26.2537 30.7967C23.3751 30.7267 21.089 28.353 21.1273 25.4738ZM29.6713 25.5765C29.6862 23.6603 28.169 22.0825 26.2537 22.0222C24.4522 22.2206 23.0885 23.7427 23.0885 25.5551C23.0885 27.3675 24.4522 28.8897 26.2537 29.0881C28.1524 29.0283 29.6631 27.4761 29.6713 25.5765Z" fill="white"/>
<path d="M53.8906 26.7266H56.2266C56.1797 27.4922 55.9688 28.1719 55.5938 28.7656C55.224 29.3594 54.7057 29.8229 54.0391 30.1562C53.3776 30.4896 52.5807 30.6562 51.6484 30.6562C50.9193 30.6562 50.2656 30.5312 49.6875 30.2812C49.1094 30.026 48.6146 29.6615 48.2031 29.1875C47.7969 28.7135 47.487 28.1406 47.2734 27.4688C47.0599 26.7969 46.9531 26.0443 46.9531 25.2109V24.4219C46.9531 23.5885 47.0625 22.8359 47.2812 22.1641C47.5052 21.487 47.8229 20.9115 48.2344 20.4375C48.651 19.9635 49.1484 19.599 49.7266 19.3438C50.3047 19.0885 50.9505 18.9609 51.6641 18.9609C52.612 18.9609 53.4115 19.1328 54.0625 19.4766C54.7188 19.8203 55.2266 20.2943 55.5859 20.8984C55.9505 21.5026 56.1693 22.1901 56.2422 22.9609H53.8984C53.8724 22.5026 53.7812 22.1146 53.625 21.7969C53.4688 21.474 53.2318 21.2318 52.9141 21.0703C52.6016 20.9036 52.1849 20.8203 51.6641 20.8203C51.2734 20.8203 50.9323 20.8932 50.6406 21.0391C50.349 21.1849 50.1042 21.4062 49.9062 21.7031C49.7083 22 49.5599 22.375 49.4609 22.8281C49.3672 23.276 49.3203 23.8021 49.3203 24.4062V25.2109C49.3203 25.7995 49.3646 26.3177 49.4531 26.7656C49.5417 27.2083 49.6771 27.5833 49.8594 27.8906C50.0469 28.1927 50.2865 28.4219 50.5781 28.5781C50.875 28.7292 51.2318 28.8047 51.6484 28.8047C52.138 28.8047 52.5417 28.7266 52.8594 28.5703C53.1771 28.4141 53.4193 28.1823 53.5859 27.875C53.7578 27.5677 53.8594 27.1849 53.8906 26.7266ZM60 18.5V30.5H57.7422V18.5H60ZM66.4219 28.5938V24.8281C66.4219 24.5573 66.3776 24.3255 66.2891 24.1328C66.2005 23.9349 66.0625 23.7812 65.875 23.6719C65.6927 23.5625 65.4557 23.5078 65.1641 23.5078C64.9141 23.5078 64.6979 23.5521 64.5156 23.6406C64.3333 23.724 64.1927 23.8464 64.0938 24.0078C63.9948 24.1641 63.9453 24.349 63.9453 24.5625H61.6953C61.6953 24.2031 61.7786 23.862 61.9453 23.5391C62.112 23.2161 62.3542 22.9323 62.6719 22.6875C62.9896 22.4375 63.3672 22.2422 63.8047 22.1016C64.2474 21.9609 64.7422 21.8906 65.2891 21.8906C65.9453 21.8906 66.5286 22 67.0391 22.2188C67.5495 22.4375 67.9505 22.7656 68.2422 23.2031C68.5391 23.6406 68.6875 24.1875 68.6875 24.8438V28.4609C68.6875 28.9245 68.7161 29.3047 68.7734 29.6016C68.8307 29.8932 68.9141 30.1484 69.0234 30.3672V30.5H66.75C66.6406 30.2708 66.5573 29.9844 66.5 29.6406C66.4479 29.2917 66.4219 28.9427 66.4219 28.5938ZM66.7188 25.3516L66.7344 26.625H65.4766C65.1797 26.625 64.9219 26.6589 64.7031 26.7266C64.4844 26.7943 64.3047 26.8906 64.1641 27.0156C64.0234 27.1354 63.9193 27.276 63.8516 27.4375C63.7891 27.599 63.7578 27.776 63.7578 27.9688C63.7578 28.1615 63.8021 28.3359 63.8906 28.4922C63.9792 28.6432 64.1068 28.763 64.2734 28.8516C64.4401 28.9349 64.6354 28.9766 64.8594 28.9766C65.1979 28.9766 65.4922 28.9089 65.7422 28.7734C65.9922 28.638 66.1849 28.4714 66.3203 28.2734C66.4609 28.0755 66.5339 27.888 66.5391 27.7109L67.1328 28.6641C67.0495 28.8776 66.9349 29.099 66.7891 29.3281C66.6484 29.5573 66.4688 29.7734 66.25 29.9766C66.0312 30.1745 65.7682 30.3385 65.4609 30.4688C65.1536 30.5938 64.7891 30.6562 64.3672 30.6562C63.8307 30.6562 63.3438 30.5495 62.9062 30.3359C62.474 30.1172 62.1302 29.8177 61.875 29.4375C61.625 29.0521 61.5 28.6146 61.5 28.125C61.5 27.6823 61.5833 27.2891 61.75 26.9453C61.9167 26.6016 62.1615 26.3125 62.4844 26.0781C62.8125 25.8385 63.2214 25.6589 63.7109 25.5391C64.2005 25.4141 64.7682 25.3516 65.4141 25.3516H66.7188ZM73.1719 28.8594L75.0469 22.0469H77.3984L74.5469 30.5H73.125L73.1719 28.8594ZM71.8828 22.0469L73.7656 28.8672L73.8047 30.5H72.375L69.5234 22.0469H71.8828ZM82.1875 30.6562C81.5312 30.6562 80.9427 30.5521 80.4219 30.3438C79.901 30.1302 79.4583 29.8359 79.0938 29.4609C78.7344 29.0859 78.4583 28.651 78.2656 28.1562C78.0729 27.6562 77.9766 27.125 77.9766 26.5625V26.25C77.9766 25.6094 78.0677 25.0234 78.25 24.4922C78.4323 23.9609 78.6927 23.5 79.0312 23.1094C79.375 22.7188 79.7917 22.4193 80.2812 22.2109C80.7708 21.9974 81.3229 21.8906 81.9375 21.8906C82.5365 21.8906 83.0677 21.9896 83.5312 22.1875C83.9948 22.3854 84.3828 22.6667 84.6953 23.0312C85.013 23.3958 85.2526 23.8333 85.4141 24.3438C85.5755 24.849 85.6562 25.4115 85.6562 26.0312V26.9688H78.9375V25.4688H83.4453V25.2969C83.4453 24.9844 83.388 24.7057 83.2734 24.4609C83.1641 24.2109 82.9974 24.013 82.7734 23.8672C82.5495 23.7214 82.263 23.6484 81.9141 23.6484C81.6172 23.6484 81.362 23.7135 81.1484 23.8438C80.9349 23.974 80.7604 24.1562 80.625 24.3906C80.4948 24.625 80.3958 24.901 80.3281 25.2188C80.2656 25.5312 80.2344 25.875 80.2344 26.25V26.5625C80.2344 26.901 80.2812 27.2135 80.375 27.5C80.474 27.7865 80.612 28.0339 80.7891 28.2422C80.9714 28.4505 81.1901 28.612 81.4453 28.7266C81.7057 28.8411 82 28.8984 82.3281 28.8984C82.7344 28.8984 83.112 28.8203 83.4609 28.6641C83.8151 28.5026 84.1198 28.2604 84.375 27.9375L85.4688 29.125C85.2917 29.3802 85.0495 29.625 84.7422 29.8594C84.4401 30.0938 84.0755 30.2865 83.6484 30.4375C83.2214 30.5833 82.7344 30.6562 82.1875 30.6562ZM93.3594 19.125H95.6953V26.6406C95.6953 27.5156 95.5078 28.2526 95.1328 28.8516C94.763 29.4505 94.25 29.901 93.5938 30.2031C92.9427 30.5052 92.1927 30.6562 91.3438 30.6562C90.4948 30.6562 89.7396 30.5052 89.0781 30.2031C88.4219 29.901 87.9062 29.4505 87.5312 28.8516C87.1615 28.2526 86.9766 27.5156 86.9766 26.6406V19.125H89.3203V26.6406C89.3203 27.151 89.401 27.5677 89.5625 27.8906C89.724 28.2135 89.9557 28.4505 90.2578 28.6016C90.5651 28.7526 90.9271 28.8281 91.3438 28.8281C91.7708 28.8281 92.1328 28.7526 92.4297 28.6016C92.7318 28.4505 92.9609 28.2135 93.1172 27.8906C93.2786 27.5677 93.3594 27.151 93.3594 26.6406V19.125ZM90.2422 18.4844L91.7734 16.0781H94.2188L92.0703 18.4844H90.2422ZM99.6875 23.8516V30.5H97.4375V22.0469H99.5469L99.6875 23.8516ZM99.3594 25.9766H98.75C98.75 25.3516 98.8307 24.7891 98.9922 24.2891C99.1536 23.7839 99.3802 23.3542 99.6719 23C99.9635 22.6406 100.31 22.3672 100.711 22.1797C101.117 21.987 101.57 21.8906 102.07 21.8906C102.466 21.8906 102.828 21.9479 103.156 22.0625C103.484 22.1771 103.766 22.3594 104 22.6094C104.24 22.8594 104.422 23.1901 104.547 23.6016C104.677 24.013 104.742 24.5156 104.742 25.1094V30.5H102.477V25.1016C102.477 24.7266 102.424 24.4349 102.32 24.2266C102.216 24.0182 102.062 23.8724 101.859 23.7891C101.661 23.7005 101.417 23.6562 101.125 23.6562C100.823 23.6562 100.56 23.7161 100.336 23.8359C100.117 23.9557 99.9349 24.1224 99.7891 24.3359C99.6484 24.5443 99.5417 24.7891 99.4688 25.0703C99.3958 25.3516 99.3594 25.6536 99.3594 25.9766ZM108.828 22.0469V30.5H106.57V22.0469H108.828ZM106.43 19.8438C106.43 19.5156 106.544 19.2448 106.773 19.0312C107.003 18.8177 107.31 18.7109 107.695 18.7109C108.076 18.7109 108.38 18.8177 108.609 19.0312C108.844 19.2448 108.961 19.5156 108.961 19.8438C108.961 20.1719 108.844 20.4427 108.609 20.6562C108.38 20.8698 108.076 20.9766 107.695 20.9766C107.31 20.9766 107.003 20.8698 106.773 20.6562C106.544 20.4427 106.43 20.1719 106.43 19.8438ZM114.18 28.8984C114.456 28.8984 114.701 28.8464 114.914 28.7422C115.128 28.6328 115.294 28.4818 115.414 28.2891C115.539 28.0911 115.604 27.8594 115.609 27.5938H117.727C117.721 28.1875 117.562 28.7161 117.25 29.1797C116.938 29.638 116.518 30 115.992 30.2656C115.466 30.526 114.878 30.6562 114.227 30.6562C113.57 30.6562 112.997 30.5469 112.508 30.3281C112.023 30.1094 111.62 29.8073 111.297 29.4219C110.974 29.0312 110.732 28.5781 110.57 28.0625C110.409 27.5417 110.328 26.9844 110.328 26.3906V26.1641C110.328 25.5651 110.409 25.0078 110.57 24.4922C110.732 23.9714 110.974 23.5182 111.297 23.1328C111.62 22.7422 112.023 22.4375 112.508 22.2188C112.992 22 113.56 21.8906 114.211 21.8906C114.904 21.8906 115.51 22.0234 116.031 22.2891C116.557 22.5547 116.969 22.9349 117.266 23.4297C117.568 23.9193 117.721 24.5 117.727 25.1719H115.609C115.604 24.8906 115.544 24.6354 115.43 24.4062C115.32 24.1771 115.159 23.9948 114.945 23.8594C114.737 23.7188 114.479 23.6484 114.172 23.6484C113.844 23.6484 113.576 23.7188 113.367 23.8594C113.159 23.9948 112.997 24.1823 112.883 24.4219C112.768 24.6562 112.688 24.9245 112.641 25.2266C112.599 25.5234 112.578 25.8359 112.578 26.1641V26.3906C112.578 26.7188 112.599 27.0339 112.641 27.3359C112.682 27.638 112.76 27.9062 112.875 28.1406C112.995 28.375 113.159 28.5599 113.367 28.6953C113.576 28.8307 113.846 28.8984 114.18 28.8984ZM123.594 28.5938V24.8281C123.594 24.5573 123.549 24.3255 123.461 24.1328C123.372 23.9349 123.234 23.7812 123.047 23.6719C122.865 23.5625 122.628 23.5078 122.336 23.5078C122.086 23.5078 121.87 23.5521 121.688 23.6406C121.505 23.724 121.365 23.8464 121.266 24.0078C121.167 24.1641 121.117 24.349 121.117 24.5625H118.867C118.867 24.2031 118.951 23.862 119.117 23.5391C119.284 23.2161 119.526 22.9323 119.844 22.6875C120.161 22.4375 120.539 22.2422 120.977 22.1016C121.419 21.9609 121.914 21.8906 122.461 21.8906C123.117 21.8906 123.701 22 124.211 22.2188C124.721 22.4375 125.122 22.7656 125.414 23.2031C125.711 23.6406 125.859 24.1875 125.859 24.8438V28.4609C125.859 28.9245 125.888 29.3047 125.945 29.6016C126.003 29.8932 126.086 30.1484 126.195 30.3672V30.5H123.922C123.812 30.2708 123.729 29.9844 123.672 29.6406C123.62 29.2917 123.594 28.9427 123.594 28.5938ZM123.891 25.3516L123.906 26.625H122.648C122.352 26.625 122.094 26.6589 121.875 26.7266C121.656 26.7943 121.477 26.8906 121.336 27.0156C121.195 27.1354 121.091 27.276 121.023 27.4375C120.961 27.599 120.93 27.776 120.93 27.9688C120.93 28.1615 120.974 28.3359 121.062 28.4922C121.151 28.6432 121.279 28.763 121.445 28.8516C121.612 28.9349 121.807 28.9766 122.031 28.9766C122.37 28.9766 122.664 28.9089 122.914 28.7734C123.164 28.638 123.357 28.4714 123.492 28.2734C123.633 28.0755 123.706 27.888 123.711 27.7109L124.305 28.6641C124.221 28.8776 124.107 29.099 123.961 29.3281C123.82 29.5573 123.641 29.7734 123.422 29.9766C123.203 30.1745 122.94 30.3385 122.633 30.4688C122.326 30.5938 121.961 30.6562 121.539 30.6562C121.003 30.6562 120.516 30.5495 120.078 30.3359C119.646 30.1172 119.302 29.8177 119.047 29.4375C118.797 29.0521 118.672 28.6146 118.672 28.125C118.672 27.6823 118.755 27.2891 118.922 26.9453C119.089 26.6016 119.333 26.3125 119.656 26.0781C119.984 25.8385 120.393 25.6589 120.883 25.5391C121.372 25.4141 121.94 25.3516 122.586 25.3516H123.891Z" fill="white"/>
</svg>
